<?xml version="1.0" encoding="UTF-8"?>
<svg version="1.1" xmlns="http://www.w3.org/2000/svg" width="185" height="186">
<path d="M0 0 C61.05 0 122.1 0 185 0 C185 61.38 185 122.76 185 186 C123.95 186 62.9 186 0 186 C0 124.62 0 63.24 0 0 Z " fill="#1C461C" transform="translate(0,0)"/>
<path d="M0 0 C61.05 0 122.1 0 185 0 C185 61.38 185 122.76 185 186 C123.95 186 62.9 186 0 186 C0 124.62 0 63.24 0 0 Z M33 28 C32.17242187 28.73605469 31.34484375 29.47210937 30.4921875 30.23046875 C15.26428812 44.50371388 4.55872702 65.50986065 3.6875 86.48828125 C3.11954802 114.29663004 11.45351581 136.69672663 30.625 157.0625 C46.56046254 172.6075071 68.10364042 181.34509522 90.25 181.375 C116.84484958 180.97863337 138.93726052 170.93058339 157.55078125 151.8203125 C174.15408871 132.7013524 180.42166159 108.73356692 179.22949219 83.79101562 C177.74219467 65.70294627 169.19632157 48.27584532 157 35 C156.26394531 34.17242187 155.52789062 33.34484375 154.76953125 32.4921875 C138.34276894 14.96673472 116.27131471 6.45801573 92.56079102 5.60986328 C70.2511944 5.21643889 49.51935322 12.82391598 33 28 Z " fill="#173317" transform="translate(0,0)"/>
<path d="M0 0 C0.79535156 0.15984375 1.59070313 0.3196875 2.41015625 0.484375 C15.01460382 3.59866255 27.5321153 11.3019952 37 20 C38.24136719 21.10408203 38.24136719 21.10408203 39.5078125 22.23046875 C54.73571188 36.50371388 65.44127298 57.50986065 66.3125 78.48828125 C66.88045198 106.29663004 58.54648419 128.69672663 39.375 149.0625 C21.92452721 166.05936723 -1.45566269 173.46437856 -25.43823242 173.43383789 C-45.80078726 172.96421067 -65.0135409 164.76783699 -80 151 C-80.82757813 150.26394531 -81.65515625 149.52789062 -82.5078125 148.76953125 C-99.47510995 132.86593287 -108.61991271 110.31139519 -109.39233398 87.2644043 C-109.754088 64.62251381 -102.44416616 43.81116391 -87 27 C-86.26394531 26.17242187 -85.52789062 25.34484375 -84.76953125 24.4921875 C-62.90006565 1.16000071 -30.77393761 -6.80955215 0 0 Z M-75 25 C-75.82886719 25.73734375 -76.65773438 26.4746875 -77.51171875 27.234375 C-87.48554664 36.58197479 -94.63313719 48.05353614 -99 61 C-99.31839844 61.93328125 -99.63679688 62.8665625 -99.96484375 63.828125 C-104.36244396 79.31092021 -103.451444 96.95473185 -98 112 C-97.649375 113.02996094 -97.29875 114.05992188 -96.9375 115.12109375 C-89.44825486 135.11841846 -73.67435697 150.11340677 -54.90234375 159.55859375 C-51.96780403 160.86154485 -49.0422787 161.97519014 -46 163 C-45.05511719 163.31839844 -44.11023438 163.63679687 -43.13671875 163.96484375 C-27.45082441 168.37968042 -10.31376228 167.14407042 5 162 C6.05316406 161.649375 7.10632813 161.29875 8.19140625 160.9375 C27.13855104 153.82305711 43.42247903 138.32050841 51.93017578 119.99658203 C60.289315 100.61166909 62.5935313 78.06646036 55 58 C51.05196959 48.31456051 46.10937576 39.72815476 39 32 C38.26265625 31.17113281 37.5253125 30.34226562 36.765625 29.48828125 C27.00681745 19.07569738 15.55289801 12.34169471 2 8 C1.11828125 7.68160156 0.2365625 7.36320313 -0.671875 7.03515625 C-26.18881043 -0.96654171 -55.67692247 7.22408541 -75 25 Z " fill="#00F800" transform="translate(113,8)"/>
<path d="M0 0 C7.59 0 15.18 0 23 0 C23.33 10.89 23.66 21.78 24 33 C26.8766114 29.16451814 28.05964516 26.41779765 29.5625 21.9375 C30.81135007 18.22985477 31.82705609 15.25941587 34 12 C34.66 12 35.32 12 36 12 C36.2475 11.13375 36.495 10.2675 36.75 9.375 C39.13821138 2.92682927 39.13821138 2.92682927 42 0 C46.4281668 -0.77246388 50.7723424 -0.56156907 55.25 -0.375 C56.47203125 -0.34792969 57.6940625 -0.32085937 58.953125 -0.29296875 C61.97052741 -0.22224838 64.9843757 -0.12359116 68 0 C66.61418564 4.87516511 65.22659816 9.74982081 63.83740234 14.62402344 C63.36556642 16.28046181 62.89420585 17.93703566 62.42333984 19.59375 C61.74443036 21.98213347 61.06378371 24.37001616 60.3828125 26.7578125 C60.07018967 27.85973434 60.07018967 27.85973434 59.75125122 28.98391724 C58.59650314 33.02597149 57.34581897 37.01636151 56 41 C54.94631155 44.67796913 53.92334488 48.36361868 52.90234375 52.05078125 C52 55 52 55 51 56 C48.13732433 56.07325168 45.299281 56.09238205 42.4375 56.0625 C41.63119141 56.05798828 40.82488281 56.05347656 39.99414062 56.04882812 C37.99606244 56.03700518 35.99802217 56.01906914 34 56 C34.875 48.25 34.875 48.25 36 46 C36.66 46 37.32 46 38 46 C37.8453125 44.4221875 37.8453125 44.4221875 37.6875 42.8125 C37.63838951 37.34159144 39.82796867 32.73414168 41.90625 27.7578125 C43.12288832 25.18461021 43.12288832 25.18461021 43 23 C39.31324671 28.77591348 36.21742259 34.42783212 33.859375 40.87109375 C33 43 33 43 31 46 C30.34 46 29.68 46 29 46 C28.71125 46.721875 28.4225 47.44375 28.125 48.1875 C27.08333333 50.79166667 26.04166667 53.39583333 25 56 C19.39 56 13.78 56 8 56 C7.973074 52.56244791 7.95319683 49.12510592 7.9375 45.6875 C7.92912109 44.71103516 7.92074219 43.73457031 7.91210938 42.72851562 C7.90727539 41.32182617 7.90727539 41.32182617 7.90234375 39.88671875 C7.89448853 38.59060669 7.89448853 38.59060669 7.88647461 37.26831055 C8 35 8 35 9 32 C5.5581065 34.29459566 5.44640794 34.92745066 4.4296875 38.75390625 C4.17316406 39.69041016 3.91664062 40.62691406 3.65234375 41.59179688 C3.39582031 42.57212891 3.13929687 43.55246094 2.875 44.5625 C2.35423762 46.50202233 1.83093701 48.44086554 1.3046875 50.37890625 C1.07765137 51.2407251 0.85061523 52.10254395 0.61669922 52.99047852 C0 55 0 55 -1 56 C-3.69654854 56.07319621 -6.36691458 56.09242537 -9.0625 56.0625 C-10.20041992 56.05573242 -10.20041992 56.05573242 -11.36132812 56.04882812 C-13.24091871 56.0370068 -15.12046899 56.01907078 -17 56 C-16.25 48.375 -16.25 48.375 -14 45 C-13.46972668 42.93329016 -13.46972668 42.93329016 -13.125 40.625 C-11.43295391 31.55669051 -8.47968823 22.92776382 -4.9453125 14.42578125 C-3.61835102 11.02064457 -2.60859589 7.54543353 -1.61328125 4.03125 C-1 2 -1 2 0 0 Z " fill="#00F700" transform="translate(100,71)"/>
<path d="M0 0 C2.62527189 -0.05382106 5.24944713 -0.09358313 7.875 -0.125 C8.62136719 -0.14175781 9.36773437 -0.15851563 10.13671875 -0.17578125 C12.09194461 -0.1933959 14.04742021 -0.10320189 16 0 C18.65777049 2.65777049 19.56953721 5.54304827 21 9 C21.391875 9.721875 21.78375 10.44375 22.1875 11.1875 C23 13 23 13 23 17 C23.66 17 24.32 17 25 17 C25.66 18.98 26.32 20.96 27 23 C27.66 23 28.32 23 29 23 C29.66 23.66 30.32 24.32 31 25 C35.07537965 16.81583595 37.64085301 8.82495725 40 0 C45.28 0 50.56 0 56 0 C48.92995359 27.06698239 48.92995359 27.06698239 44.86669922 38.12646484 C43.32633379 42.44783749 42.61063604 46.43258908 42.32177734 51.01733398 C42 53 42 53 40 56 C37.37302936 56.22137393 34.99106036 56.28162025 32.375 56.1875 C31.66859375 56.17396484 30.9621875 56.16042969 30.234375 56.14648438 C28.48925872 56.1111104 26.74453392 56.05730221 25 56 C24.72325439 55.47156494 24.44650879 54.94312988 24.16137695 54.39868164 C22.87955805 51.9526884 21.59603684 49.50759216 20.3125 47.0625 C19.87744141 46.23169922 19.44238281 45.40089844 18.99414062 44.54492188 C16.0737178 38.98530213 13.0750953 33.47557346 10 28 C9.34 29.98 8.68 31.96 8 34 C7.34 34 6.68 34 6 34 C5.87625 34.78375 5.7525 35.5675 5.625 36.375 C4.83873576 40.9353326 3.92299584 45.46567093 3 50 C2.34 50 1.68 50 1 50 C0.505 52.475 0.505 52.475 0 55 C-4.95 55 -9.9 55 -15 55 C-13.6979374 45.85756048 -11.46412782 37.40217293 -8.625 28.625 C-7.84474485 26.18020053 -7.06609457 23.73488827 -6.2890625 21.2890625 C-5.72106934 19.50290527 -5.72106934 19.50290527 -5.14160156 17.68066406 C-3.32277534 11.81654426 -1.65296704 5.91284099 0 0 Z " fill="#00F700" transform="translate(38,71)"/>
<path d="M0 0 C0.66 0 1.32 0 2 0 C2.0294985 3.77081636 2.04696364 7.54160231 2.0625 11.3125 C2.07087891 12.36501953 2.07925781 13.41753906 2.08789062 14.50195312 C2.10912731 21.40387656 1.72349505 28.13534225 1 35 C6.28 35 11.56 35 17 35 C17 35.33 17 35.66 17 36 C11.39 36 5.78 36 0 36 C-0.026926 32.56244791 -0.04680317 29.12510592 -0.0625 25.6875 C-0.07087891 24.71103516 -0.07925781 23.73457031 -0.08789062 22.72851562 C-0.09111328 21.79072266 -0.09433594 20.85292969 -0.09765625 19.88671875 C-0.10289307 19.02264404 -0.10812988 18.15856934 -0.11352539 17.26831055 C0 15 0 15 1 12 C-0.98 12.99 -0.98 12.99 -3 14 C-2.80083984 13.11248047 -2.80083984 13.11248047 -2.59765625 12.20703125 C-1.68994822 8.14553475 -0.7908887 4.08625829 0 0 Z " fill="#08AB08" transform="translate(108,91)"/>
<path d="M0 0 C8.25 0 16.5 0 25 0 C25 9.9 25 19.8 25 30 C25.66 30 26.32 30 27 30 C27.66 28.35 28.32 26.7 29 25 C29.33 25.66 29.66 26.32 30 27 C28.38513421 30.7949346 26.94695474 33.05304526 24 36 C24 24.45 24 12.9 24 1 C16.41 1 8.82 1 1 1 C0.34 3.31 -0.32 5.62 -1 8 C-1.625 6.25 -1.625 6.25 -2 4 C-1.34 2.68 -0.68 1.36 0 0 Z " fill="#0D970D" transform="translate(99,70)"/>
<path d="M0 0 C2 4 2 4 2 6 C0 7.625 0 7.625 -2 9 C-1.67 7.02 -1.34 5.04 -1 3 C-9.58 3 -18.16 3 -27 3 C-27 2.34 -27 1.68 -27 1 C-18.09 0.67 -9.18 0.34 0 0 Z " fill="#147E14" transform="translate(168,69)"/>
<path d="M0 0 C1.31581942 3.94745826 0.4384849 6.00009473 -0.8984375 9.8359375 C-2.61108972 13.2005096 -4.68467107 14.30549855 -8 16 C-6.42986223 10.03347646 -3.24970218 5.17090975 0 0 Z " fill="#0A910A" transform="translate(144,90)"/>
<path d="M0 0 C0.33 0 0.66 0 1 0 C1 3.3 1 6.6 1 10 C-0.98 10.99 -0.98 10.99 -3 12 C-2.68950274 10.56206608 -2.3765224 9.1246682 -2.0625 7.6875 C-1.88847656 6.88699219 -1.71445313 6.08648437 -1.53515625 5.26171875 C-1 3 -1 3 0 0 Z " fill="#0A880A" transform="translate(108,93)"/>
<path d="M0 0 C1.46726798 3.81489674 0.43336419 6.29011622 -1 10 C-1.66 10 -2.32 10 -3 10 C-3 9.01 -3 8.02 -3 7 C-3.66 7 -4.32 7 -5 7 C-4.67 5.68 -4.34 4.36 -4 3 C-3.34 3.66 -2.68 4.32 -2 5 C-1.34 3.35 -0.68 1.7 0 0 Z " fill="#09A309" transform="translate(71,91)"/>
</svg>
